<svg width="25" height="25" viewBox="0 0 25 25" fill="none" xmlns="http://www.w3.org/2000/svg">
<path d="M3.03064 11.1124C3.03064 7.30291 3.03064 5.39767 4.2146 4.21472C5.39856 3.03177 7.30279 3.03076 11.1123 3.03076H13.1327C16.9422 3.03076 18.8474 3.03076 20.0304 4.21472C21.2133 5.39868 21.2143 7.30291 21.2143 11.1124V13.1328C21.2143 16.9423 21.2143 18.8475 20.0304 20.0305C18.8464 21.2134 16.9422 21.2144 13.1327 21.2144H11.1123C7.30279 21.2144 5.39755 21.2144 4.2146 20.0305C3.03165 18.8465 3.03064 16.9423 3.03064 13.1328V11.1124Z" stroke="#323232" stroke-width="2"/>
<path d="M16.6684 9.09214C17.5053 9.09214 18.1837 8.41371 18.1837 7.57683C18.1837 6.73995 17.5053 6.06152 16.6684 6.06152C15.8315 6.06152 15.1531 6.73995 15.1531 7.57683C15.1531 8.41371 15.8315 9.09214 16.6684 9.09214Z" fill="#323232"/>
<path d="M12.1225 15.153C13.7963 15.153 15.1531 13.7962 15.1531 12.1224C15.1531 10.4486 13.7963 9.0918 12.1225 9.0918C10.4488 9.0918 9.09192 10.4486 9.09192 12.1224C9.09192 13.7962 10.4488 15.153 12.1225 15.153Z" stroke="#323232" stroke-width="2"/>
</svg>
