<svg width="25" height="25" viewBox="0 0 25 25" fill="none" xmlns="http://www.w3.org/2000/svg">
<path d="M7.01079 5.0512C7.01052 5.58705 6.7974 6.10084 6.41831 6.47955C6.03922 6.85826 5.52521 7.07087 4.98937 7.0706C4.45352 7.07033 3.93973 6.85721 3.56102 6.47812C3.18231 6.09903 2.9697 5.58503 2.96997 5.04918C2.97024 4.51334 3.18336 3.99955 3.56245 3.62083C3.94154 3.24212 4.45554 3.02952 4.99139 3.02979C5.52723 3.03005 6.04103 3.24317 6.41974 3.62226C6.79845 4.00135 7.01106 4.51536 7.01079 5.0512ZM7.0714 8.56671H3.03058V21.2145H7.0714V8.56671ZM13.4559 8.56671H9.43528V21.2145H13.4155V14.5774C13.4155 10.8801 18.2342 10.5366 18.2342 14.5774V21.2145H22.2245V13.2036C22.2245 6.97059 15.0924 7.20294 13.4155 10.2639L13.4559 8.56671Z" fill="#323232"/>
</svg>
